<mxfile host="app.diagrams.net" modified="2021-01-06T09:02:49.014Z" agent="5.0 (Windows NT 10.0; Win64; x64) AppleWebKit/537.36 (KHTML, like Gecko) Chrome/87.0.4280.88 Safari/537.36" etag="mUdo0LEiU9ejdptuXbf8" version="14.1.4" type="github" pages="2">
  <diagram name="Origin" id="9361dd3d-8414-5efd-6122-117bd74ce7a7">
    <mxGraphModel dx="677" dy="378" grid="1" gridSize="10" guides="1" tooltips="1" connect="1" arrows="1" fold="1" page="0" pageScale="1.5" pageWidth="826" pageHeight="1169" background="#ffffff" math="0" shadow="0">
      <root>
        <mxCell id="0" />
        <mxCell id="1" parent="0" />
        <mxCell id="69" value="" style="fillColor=#DEE8FF;strokeColor=none" parent="1" vertex="1">
          <mxGeometry x="40" y="10" width="450" height="360" as="geometry" />
        </mxCell>
        <mxCell id="2" value="" style="fillColor=#CC4125;strokeColor=#660000" parent="1" vertex="1">
          <mxGeometry x="200" y="150" width="10" height="40" as="geometry" />
        </mxCell>
        <mxCell id="3" value="Begin Edit" style="edgeStyle=none;verticalLabelPosition=top;verticalAlign=bottom;labelPosition=left;align=right" parent="1" edge="1">
          <mxGeometry x="110" y="49.5" width="100" height="100" as="geometry">
            <mxPoint x="110" y="149.5" as="sourcePoint" />
            <mxPoint x="200" y="149.5" as="targetPoint" />
          </mxGeometry>
        </mxCell>
        <mxCell id="4" value="Edit Data On GUI&#xa;Thread - 0" style="shadow=1;fillColor=#A2C4C9;strokeColor=none" parent="1" vertex="1">
          <mxGeometry x="152.5" y="60" width="105" height="50" as="geometry" />
        </mxCell>
        <mxCell id="6" value="" style="fillColor=#CC4125;strokeColor=#660000" parent="1" vertex="1">
          <mxGeometry x="342.5" y="180" width="10" height="60" as="geometry" />
        </mxCell>
        <mxCell id="7" value="Data Validation&#xa;Thread - 1" style="shadow=1;fillColor=#A2C4C9;strokeColor=none" parent="1" vertex="1">
          <mxGeometry x="295" y="60" width="105" height="50" as="geometry" />
        </mxCell>
        <mxCell id="8" value="" style="edgeStyle=none;endArrow=none;dashed=1" parent="1" source="7" target="6" edge="1">
          <mxGeometry x="272.3350694444445" y="165" width="100" height="100" as="geometry">
            <mxPoint x="347.2588734567901" y="110" as="sourcePoint" />
            <mxPoint x="347.5761959876544" y="165" as="targetPoint" />
          </mxGeometry>
        </mxCell>
        <mxCell id="9" value="Data Changed" style="edgeStyle=none;verticalLabelPosition=top;verticalAlign=bottom" parent="1" edge="1">
          <mxGeometry x="220" y="92" width="100" height="100" as="geometry">
            <mxPoint x="210" y="179.5" as="sourcePoint" />
            <mxPoint x="340" y="179.5" as="targetPoint" />
          </mxGeometry>
        </mxCell>
        <mxCell id="11" value="" style="edgeStyle=none;verticalLabelPosition=top;verticalAlign=bottom;endArrow=none;startArrow=classic;dashed=1" parent="1" edge="1">
          <mxGeometry x="220" y="152.49887345679014" width="100" height="100" as="geometry">
            <mxPoint x="210" y="239.99887345679014" as="sourcePoint" />
            <mxPoint x="340" y="239.99887345679014" as="targetPoint" />
          </mxGeometry>
        </mxCell>
        <mxCell id="RFvR0Hy7TAheW-M3zpLB-90" value="Error Message" style="edgeLabel;html=1;align=center;verticalAlign=middle;resizable=0;points=[];" vertex="1" connectable="0" parent="11">
          <mxGeometry relative="1" as="geometry">
            <mxPoint x="-7.09" y="-10" as="offset" />
          </mxGeometry>
        </mxCell>
        <mxCell id="12" value="" style="edgeStyle=none;verticalLabelPosition=top;verticalAlign=bottom;labelPosition=left;align=right;endArrow=none;startArrow=classic;dashed=1" parent="1" edge="1">
          <mxGeometry x="110" y="89.99887345679012" width="100" height="100" as="geometry">
            <mxPoint x="110" y="189.99887345679014" as="sourcePoint" />
            <mxPoint x="200" y="189.99887345679014" as="targetPoint" />
          </mxGeometry>
        </mxCell>
        <mxCell id="RFvR0Hy7TAheW-M3zpLB-89" value="Edit Done" style="edgeLabel;html=1;align=center;verticalAlign=middle;resizable=0;points=[];" vertex="1" connectable="0" parent="12">
          <mxGeometry relative="1" as="geometry">
            <mxPoint x="-5.140000000000001" y="-9.83" as="offset" />
          </mxGeometry>
        </mxCell>
        <mxCell id="33" value="" style="edgeStyle=elbowEdgeStyle;elbow=horizontal;endArrow=none;dashed=1" parent="1" source="4" target="2" edge="1">
          <mxGeometry x="230.00000000000003" y="310" width="100" height="100" as="geometry">
            <mxPoint x="230.00000000000003" y="410" as="sourcePoint" />
            <mxPoint x="330" y="310" as="targetPoint" />
          </mxGeometry>
        </mxCell>
        <mxCell id="44" value="" style="edgeStyle=none;dashed=1;endArrow=none" parent="1" source="2" edge="1">
          <mxGeometry x="50" y="300" width="100" height="100" as="geometry">
            <mxPoint x="50" y="400" as="sourcePoint" />
            <mxPoint x="205" y="340" as="targetPoint" />
          </mxGeometry>
        </mxCell>
        <mxCell id="52" value="" style="edgeStyle=none;endArrow=none;dashed=1" parent="1" source="6" edge="1">
          <mxGeometry x="376.5711805555559" y="339.6971450617284" width="100" height="100" as="geometry">
            <mxPoint x="451.7361111111112" y="284.6971450617284" as="sourcePoint" />
            <mxPoint x="348" y="340" as="targetPoint" />
          </mxGeometry>
        </mxCell>
        <mxCell id="71" value="Test Program EditorÂ &#xa;Data Changed" style="rounded=1;fontStyle=1;fillColor=#FFD966;strokeColor=none" parent="1" vertex="1">
          <mxGeometry x="50" y="20" width="150" height="30" as="geometry" />
        </mxCell>
        <mxCell id="RFvR0Hy7TAheW-M3zpLB-91" value="" style="fillColor=#CC4125;strokeColor=#660000" vertex="1" parent="1">
          <mxGeometry x="200" y="240" width="10" height="30" as="geometry" />
        </mxCell>
        <mxCell id="RFvR0Hy7TAheW-M3zpLB-92" value="" style="edgeStyle=none;verticalLabelPosition=top;verticalAlign=bottom;labelPosition=left;align=right;endArrow=none;startArrow=classic;dashed=1" edge="1" parent="1">
          <mxGeometry x="110" y="169.99887345679014" width="100" height="100" as="geometry">
            <mxPoint x="110" y="269.9988734567901" as="sourcePoint" />
            <mxPoint x="200" y="269.9988734567901" as="targetPoint" />
          </mxGeometry>
        </mxCell>
        <mxCell id="RFvR0Hy7TAheW-M3zpLB-93" value="Show Error Message" style="edgeLabel;html=1;align=center;verticalAlign=middle;resizable=0;points=[];" vertex="1" connectable="0" parent="RFvR0Hy7TAheW-M3zpLB-92">
          <mxGeometry relative="1" as="geometry">
            <mxPoint x="-25.240000000000002" y="10" as="offset" />
          </mxGeometry>
        </mxCell>
      </root>
    </mxGraphModel>
  </diagram>
  <diagram id="zz9s681mXxmGtCG9_3eK" name="Improve">
    <mxGraphModel dx="677" dy="351" grid="1" gridSize="10" guides="1" tooltips="1" connect="1" arrows="1" fold="1" page="1" pageScale="1" pageWidth="827" pageHeight="1169" math="0" shadow="0">
      <root>
        <mxCell id="txnki764LsTvjz05l7-s-0" />
        <mxCell id="txnki764LsTvjz05l7-s-1" parent="txnki764LsTvjz05l7-s-0" />
        <mxCell id="ziqs5kSe05OEaQjLztH9-0" value="" style="fillColor=#DEE8FF;strokeColor=none" vertex="1" parent="txnki764LsTvjz05l7-s-1">
          <mxGeometry x="30" y="10" width="580" height="370" as="geometry" />
        </mxCell>
        <mxCell id="ziqs5kSe05OEaQjLztH9-1" value="" style="fillColor=#CC4125;strokeColor=#660000" vertex="1" parent="txnki764LsTvjz05l7-s-1">
          <mxGeometry x="190" y="150" width="10" height="40" as="geometry" />
        </mxCell>
        <mxCell id="ziqs5kSe05OEaQjLztH9-2" value="Editing" style="edgeStyle=none;verticalLabelPosition=top;verticalAlign=bottom;labelPosition=left;align=right" edge="1" parent="txnki764LsTvjz05l7-s-1">
          <mxGeometry x="100" y="49.5" width="100" height="100" as="geometry">
            <mxPoint x="100" y="149.5" as="sourcePoint" />
            <mxPoint x="190" y="149.5" as="targetPoint" />
          </mxGeometry>
        </mxCell>
        <mxCell id="ziqs5kSe05OEaQjLztH9-3" value="Edit Data On GUI&#xa;Thread - 0" style="shadow=1;fillColor=#A2C4C9;strokeColor=none" vertex="1" parent="txnki764LsTvjz05l7-s-1">
          <mxGeometry x="142.5" y="60" width="105" height="50" as="geometry" />
        </mxCell>
        <mxCell id="ziqs5kSe05OEaQjLztH9-4" value="" style="fillColor=#CC4125;strokeColor=#660000" vertex="1" parent="txnki764LsTvjz05l7-s-1">
          <mxGeometry x="332.5" y="180" width="10" height="60" as="geometry" />
        </mxCell>
        <mxCell id="ziqs5kSe05OEaQjLztH9-5" value="Timer&#xa;Thread - 1" style="shadow=1;fillColor=#A2C4C9;strokeColor=none" vertex="1" parent="txnki764LsTvjz05l7-s-1">
          <mxGeometry x="285" y="60" width="105" height="50" as="geometry" />
        </mxCell>
        <mxCell id="ziqs5kSe05OEaQjLztH9-6" value="" style="edgeStyle=none;endArrow=none;dashed=1" edge="1" parent="txnki764LsTvjz05l7-s-1" source="ziqs5kSe05OEaQjLztH9-5" target="ziqs5kSe05OEaQjLztH9-4">
          <mxGeometry x="262.33506944444457" y="165" width="100" height="100" as="geometry">
            <mxPoint x="337.25887345679007" y="110" as="sourcePoint" />
            <mxPoint x="337.5761959876544" y="165" as="targetPoint" />
          </mxGeometry>
        </mxCell>
        <mxCell id="ziqs5kSe05OEaQjLztH9-7" value="Property Changed" style="edgeStyle=none;verticalLabelPosition=top;verticalAlign=bottom" edge="1" parent="txnki764LsTvjz05l7-s-1">
          <mxGeometry x="210" y="92" width="100" height="100" as="geometry">
            <mxPoint x="200" y="179.5" as="sourcePoint" />
            <mxPoint x="330" y="179.5" as="targetPoint" />
          </mxGeometry>
        </mxCell>
        <mxCell id="ziqs5kSe05OEaQjLztH9-10" value="" style="edgeStyle=none;verticalLabelPosition=top;verticalAlign=bottom;labelPosition=left;align=right;endArrow=none;startArrow=classic;dashed=1" edge="1" parent="txnki764LsTvjz05l7-s-1">
          <mxGeometry x="100" y="89.99887345679012" width="100" height="100" as="geometry">
            <mxPoint x="100" y="189.99887345679008" as="sourcePoint" />
            <mxPoint x="190" y="189.99887345679008" as="targetPoint" />
          </mxGeometry>
        </mxCell>
        <mxCell id="ziqs5kSe05OEaQjLztH9-11" value="Edit Done" style="edgeLabel;html=1;align=center;verticalAlign=middle;resizable=0;points=[];" vertex="1" connectable="0" parent="ziqs5kSe05OEaQjLztH9-10">
          <mxGeometry relative="1" as="geometry">
            <mxPoint x="-5.140000000000001" y="-9.83" as="offset" />
          </mxGeometry>
        </mxCell>
        <mxCell id="ziqs5kSe05OEaQjLztH9-12" value="" style="edgeStyle=elbowEdgeStyle;elbow=horizontal;endArrow=none;dashed=1" edge="1" parent="txnki764LsTvjz05l7-s-1" source="ziqs5kSe05OEaQjLztH9-3" target="ziqs5kSe05OEaQjLztH9-1">
          <mxGeometry x="220" y="310" width="100" height="100" as="geometry">
            <mxPoint x="220" y="410" as="sourcePoint" />
            <mxPoint x="320" y="310" as="targetPoint" />
          </mxGeometry>
        </mxCell>
        <mxCell id="ziqs5kSe05OEaQjLztH9-13" value="" style="edgeStyle=none;dashed=1;endArrow=none" edge="1" parent="txnki764LsTvjz05l7-s-1" source="ziqs5kSe05OEaQjLztH9-16">
          <mxGeometry x="40" y="300" width="100" height="100" as="geometry">
            <mxPoint x="40" y="400" as="sourcePoint" />
            <mxPoint x="195" y="340" as="targetPoint" />
          </mxGeometry>
        </mxCell>
        <mxCell id="ziqs5kSe05OEaQjLztH9-14" value="" style="edgeStyle=none;endArrow=none;dashed=1" edge="1" parent="txnki764LsTvjz05l7-s-1" source="ziqs5kSe05OEaQjLztH9-4">
          <mxGeometry x="366.5711805555559" y="339.6971450617284" width="100" height="100" as="geometry">
            <mxPoint x="441.7361111111112" y="284.6971450617284" as="sourcePoint" />
            <mxPoint x="338" y="340" as="targetPoint" />
          </mxGeometry>
        </mxCell>
        <mxCell id="ziqs5kSe05OEaQjLztH9-15" value="Test Program EditorÂ &#xa;Data Validation Handler" style="rounded=1;fontStyle=1;fillColor=#FFD966;strokeColor=none" vertex="1" parent="txnki764LsTvjz05l7-s-1">
          <mxGeometry x="40" y="20" width="150" height="30" as="geometry" />
        </mxCell>
        <mxCell id="ziqs5kSe05OEaQjLztH9-19" value="Data Validation&#xa;Thread - 2" style="shadow=1;fillColor=#A2C4C9;strokeColor=none" vertex="1" parent="txnki764LsTvjz05l7-s-1">
          <mxGeometry x="430" y="60" width="105" height="50" as="geometry" />
        </mxCell>
        <mxCell id="ziqs5kSe05OEaQjLztH9-21" value="" style="edgeStyle=none;endArrow=none;dashed=1;exitX=0.5;exitY=1;exitDx=0;exitDy=0;entryX=0.5;entryY=0;entryDx=0;entryDy=0;" edge="1" parent="txnki764LsTvjz05l7-s-1" source="ziqs5kSe05OEaQjLztH9-19" target="ziqs5kSe05OEaQjLztH9-22">
          <mxGeometry x="407.09506944444456" y="175" width="100" height="100" as="geometry">
            <mxPoint x="482.2599999999999" y="120.00000000000006" as="sourcePoint" />
            <mxPoint x="482" y="150" as="targetPoint" />
          </mxGeometry>
        </mxCell>
        <mxCell id="ziqs5kSe05OEaQjLztH9-22" value="" style="fillColor=#CC4125;strokeColor=#660000" vertex="1" parent="txnki764LsTvjz05l7-s-1">
          <mxGeometry x="477.5" y="240" width="10" height="60" as="geometry" />
        </mxCell>
        <mxCell id="ziqs5kSe05OEaQjLztH9-23" value="Start Validation" style="edgeStyle=none;verticalLabelPosition=top;verticalAlign=bottom;entryX=0;entryY=0;entryDx=0;entryDy=0;" edge="1" parent="txnki764LsTvjz05l7-s-1" target="ziqs5kSe05OEaQjLztH9-22">
          <mxGeometry x="352.5" y="152.02" width="100" height="100" as="geometry">
            <mxPoint x="342.5" y="239.52" as="sourcePoint" />
            <mxPoint x="472.5000000000001" y="239.52" as="targetPoint" />
          </mxGeometry>
        </mxCell>
        <mxCell id="ziqs5kSe05OEaQjLztH9-16" value="" style="fillColor=#CC4125;strokeColor=#660000" vertex="1" parent="txnki764LsTvjz05l7-s-1">
          <mxGeometry x="190" y="300" width="10" height="30" as="geometry" />
        </mxCell>
        <mxCell id="ziqs5kSe05OEaQjLztH9-24" value="" style="edgeStyle=none;dashed=1;endArrow=none" edge="1" parent="txnki764LsTvjz05l7-s-1" source="ziqs5kSe05OEaQjLztH9-1" target="ziqs5kSe05OEaQjLztH9-16">
          <mxGeometry x="40" y="300" width="100" height="100" as="geometry">
            <mxPoint x="195" y="190" as="sourcePoint" />
            <mxPoint x="195" y="340" as="targetPoint" />
          </mxGeometry>
        </mxCell>
        <mxCell id="ziqs5kSe05OEaQjLztH9-27" value="" style="edgeStyle=none;verticalLabelPosition=top;verticalAlign=bottom;labelPosition=left;align=right;endArrow=none;startArrow=classic;dashed=1;exitX=0.75;exitY=0;exitDx=0;exitDy=0;" edge="1" parent="txnki764LsTvjz05l7-s-1" source="ziqs5kSe05OEaQjLztH9-16">
          <mxGeometry x="387.5" y="199.51887345679012" width="100" height="100" as="geometry">
            <mxPoint x="387.5" y="299.51887345679006" as="sourcePoint" />
            <mxPoint x="477.5" y="299.51887345679006" as="targetPoint" />
          </mxGeometry>
        </mxCell>
        <mxCell id="ziqs5kSe05OEaQjLztH9-28" value="Compile Data Validation" style="edgeLabel;html=1;align=center;verticalAlign=middle;resizable=0;points=[];" vertex="1" connectable="0" parent="ziqs5kSe05OEaQjLztH9-27">
          <mxGeometry relative="1" as="geometry">
            <mxPoint x="-5.140000000000001" y="-9.83" as="offset" />
          </mxGeometry>
        </mxCell>
        <mxCell id="ziqs5kSe05OEaQjLztH9-29" value="" style="edgeStyle=none;verticalLabelPosition=top;verticalAlign=bottom;labelPosition=left;align=right;endArrow=none;startArrow=classic;dashed=1" edge="1" parent="txnki764LsTvjz05l7-s-1">
          <mxGeometry x="100" y="229.99887345679014" width="100" height="100" as="geometry">
            <mxPoint x="100" y="329.9988734567901" as="sourcePoint" />
            <mxPoint x="190" y="329.9988734567901" as="targetPoint" />
          </mxGeometry>
        </mxCell>
        <mxCell id="ziqs5kSe05OEaQjLztH9-30" value="Show Error Message" style="edgeLabel;html=1;align=center;verticalAlign=middle;resizable=0;points=[];" vertex="1" connectable="0" parent="ziqs5kSe05OEaQjLztH9-29">
          <mxGeometry relative="1" as="geometry">
            <mxPoint x="-15.24" y="9.999999999999998" as="offset" />
          </mxGeometry>
        </mxCell>
        <mxCell id="ziqs5kSe05OEaQjLztH9-31" value="" style="edgeStyle=none;verticalLabelPosition=top;verticalAlign=bottom;labelPosition=left;align=right;endArrow=none;startArrow=classic;dashed=1" edge="1" parent="txnki764LsTvjz05l7-s-1">
          <mxGeometry x="242.5" y="139.51887345679012" width="100" height="100" as="geometry">
            <mxPoint x="242.5" y="239.51887345679006" as="sourcePoint" />
            <mxPoint x="332.5" y="239.51887345679006" as="targetPoint" />
          </mxGeometry>
        </mxCell>
        <mxCell id="ziqs5kSe05OEaQjLztH9-32" value="Idle" style="edgeLabel;html=1;align=center;verticalAlign=middle;resizable=0;points=[];" vertex="1" connectable="0" parent="ziqs5kSe05OEaQjLztH9-31">
          <mxGeometry relative="1" as="geometry">
            <mxPoint x="-15.24" y="9.999999999999998" as="offset" />
          </mxGeometry>
        </mxCell>
        <mxCell id="ziqs5kSe05OEaQjLztH9-33" value="" style="edgeStyle=none;endArrow=none;dashed=1;exitX=0.5;exitY=1;exitDx=0;exitDy=0;" edge="1" parent="txnki764LsTvjz05l7-s-1">
          <mxGeometry x="406.85506944444455" y="365" width="100" height="100" as="geometry">
            <mxPoint x="482.26" y="300.00000000000006" as="sourcePoint" />
            <mxPoint x="482" y="350" as="targetPoint" />
          </mxGeometry>
        </mxCell>
        <mxCell id="HvnnbtUFAUWfyxuPe7rJ-0" value="" style="edgeStyle=none;verticalLabelPosition=top;verticalAlign=bottom;labelPosition=left;align=right;endArrow=classic;startArrow=classic;dashed=1;endFill=1;" edge="1" parent="txnki764LsTvjz05l7-s-1">
          <mxGeometry x="230" y="109.75887345679014" width="100" height="100" as="geometry">
            <mxPoint x="310" y="180" as="sourcePoint" />
            <mxPoint x="310" y="240" as="targetPoint" />
          </mxGeometry>
        </mxCell>
        <mxCell id="HvnnbtUFAUWfyxuPe7rJ-1" value="100 ms" style="edgeLabel;html=1;align=center;verticalAlign=middle;resizable=0;points=[];" vertex="1" connectable="0" parent="HvnnbtUFAUWfyxuPe7rJ-0">
          <mxGeometry relative="1" as="geometry">
            <mxPoint x="-25" y="-1.7763568394002505e-15" as="offset" />
          </mxGeometry>
        </mxCell>
        <mxCell id="HvnnbtUFAUWfyxuPe7rJ-2" value="" style="edgeStyle=none;verticalLabelPosition=top;verticalAlign=bottom;labelPosition=left;align=right;endArrow=classic;startArrow=classic;dashed=1;endFill=1;" edge="1" parent="txnki764LsTvjz05l7-s-1">
          <mxGeometry x="380" y="169.75887345679013" width="100" height="100" as="geometry">
            <mxPoint x="460.0000000000001" y="240" as="sourcePoint" />
            <mxPoint x="460.0000000000001" y="300" as="targetPoint" />
          </mxGeometry>
        </mxCell>
        <mxCell id="HvnnbtUFAUWfyxuPe7rJ-4" value="100 ms" style="edgeLabel;html=1;align=center;verticalAlign=middle;resizable=0;points=[];" vertex="1" connectable="0" parent="HvnnbtUFAUWfyxuPe7rJ-2">
          <mxGeometry relative="1" as="geometry">
            <mxPoint x="-30" as="offset" />
          </mxGeometry>
        </mxCell>
        <mxCell id="HvnnbtUFAUWfyxuPe7rJ-5" value="" style="edgeStyle=none;verticalLabelPosition=top;verticalAlign=bottom;labelPosition=left;align=right;endArrow=classic;startArrow=classic;dashed=1;endFill=1;" edge="1" parent="txnki764LsTvjz05l7-s-1">
          <mxGeometry x="70" y="149.75887345679013" width="100" height="100" as="geometry">
            <mxPoint x="150" y="190" as="sourcePoint" />
            <mxPoint x="150" y="300" as="targetPoint" />
          </mxGeometry>
        </mxCell>
        <mxCell id="HvnnbtUFAUWfyxuPe7rJ-7" value="200 ms" style="edgeLabel;html=1;align=center;verticalAlign=middle;resizable=0;points=[];" vertex="1" connectable="0" parent="HvnnbtUFAUWfyxuPe7rJ-5">
          <mxGeometry relative="1" as="geometry">
            <mxPoint x="-30" y="-8" as="offset" />
          </mxGeometry>
        </mxCell>
        <mxCell id="HvnnbtUFAUWfyxuPe7rJ-8" value="" style="edgeStyle=none;verticalLabelPosition=top;verticalAlign=bottom;labelPosition=left;align=right;endArrow=none;startArrow=none;dashed=1;startFill=0;" edge="1" parent="txnki764LsTvjz05l7-s-1">
          <mxGeometry x="100" y="199.51887345679012" width="100" height="100" as="geometry">
            <mxPoint x="100" y="299.51887345679006" as="sourcePoint" />
            <mxPoint x="190.0000000000001" y="299.51887345679006" as="targetPoint" />
          </mxGeometry>
        </mxCell>
        <mxCell id="HvnnbtUFAUWfyxuPe7rJ-10" value="" style="edgeStyle=none;verticalLabelPosition=top;verticalAlign=bottom;labelPosition=left;align=right;endArrow=classic;startArrow=classic;dashed=1;endFill=1;" edge="1" parent="txnki764LsTvjz05l7-s-1">
          <mxGeometry x="90" y="259.7588734567901" width="100" height="100" as="geometry">
            <mxPoint x="170" y="300" as="sourcePoint" />
            <mxPoint x="170" y="330" as="targetPoint" />
          </mxGeometry>
        </mxCell>
        <mxCell id="HvnnbtUFAUWfyxuPe7rJ-11" value="10 ms" style="edgeLabel;html=1;align=center;verticalAlign=middle;resizable=0;points=[];" vertex="1" connectable="0" parent="HvnnbtUFAUWfyxuPe7rJ-10">
          <mxGeometry relative="1" as="geometry">
            <mxPoint x="-27.5" y="-0.240000000000002" as="offset" />
          </mxGeometry>
        </mxCell>
      </root>
    </mxGraphModel>
  </diagram>
</mxfile>
